<svg
  width="24"
  height="24"
  xmlns="http://www.w3.org/2000/svg"
>
  <path
    d="M20 4H4C2.89 4 2 4.9 2 6V18C2 19.1 2.89 20 4 20H20C21.1 20 22 19.1 22 18V6C22 4.9 21.11 4 20 4ZM20 18H4V8H20V18ZM12 16C12 15.45 12.45 15 13 15H17C17.55 15 18 15.45 18 16C18 16.55 17.55 17 17 17H13C12.45 17 12 16.55 12 16ZM6.79 9.71C7.18 9.32 7.81 9.32 8.2 9.71L10.79 12.3C11.18 12.69 11.18 13.32 10.79 13.71L8.2 16.3C7.81 16.69 7.18 16.69 6.79 16.3C6.69728 16.2075 6.62373 16.0976 6.57354 15.9766C6.52335 15.8557 6.49751 15.726 6.49751 15.595C6.49751 15.464 6.52335 15.3343 6.57354 15.2134C6.62373 15.0924 6.69728 14.9825 6.79 14.89L8.67 13L6.79 11.12C6.69728 11.0275 6.62373 10.9176 6.57354 10.7966C6.52335 10.6757 6.49751 10.546 6.49751 10.415C6.49751 10.284 6.52335 10.1543 6.57354 10.0334C6.62373 9.91239 6.69728 9.80251 6.79 9.71Z"
    fill="white"
  />
</svg>
