<svg width="24" height="24" viewBox="0 0 24 24" fill="none" xmlns="http://www.w3.org/2000/svg">
<path fill-rule="evenodd" clip-rule="evenodd" d="M2 6C2 4.34315 3.34315 3 5 3H15C16.6569 3 18 4.34315 18 6V15H22V18C22 19.6569 20.6569 21 19 21H9C7.34315 21 6 19.6569 6 18V9H2V6ZM14 6C14 5.44772 14.4477 5 15 5C15.5523 5 16 5.44772 16 6V18C16 18.5523 16.225 19 16.5 19H9C8.44772 19 8 18.5523 8 18V9H14V6ZM12 7H4V6C4 5.44772 4.44772 5 5 5H12.5C12.225 5 12 5.44772 12 6V7ZM18 17H20V18C20 18.5523 19.5523 19 19 19C18.4477 19 18 18.5523 18 18V17Z" fill="white"/>
<path fill-rule="evenodd" clip-rule="evenodd" d="M10 13V11H14V13H10ZM10 17V15H14V17H10Z" fill="white"/>
</svg>
