<svg width="24" height="24" viewBox="0 0 24 24" fill="none" xmlns="http://www.w3.org/2000/svg">
<path fill-rule="evenodd" clip-rule="evenodd" d="M20 3C21.1046 3 22 3.89543 22 5V7C22 7.55228 21.5523 8 21 8H19C19.5523 8 20 7.55228 20 7V5C20 3.89543 19.1046 3 18 3H20Z" fill="white"/>
<path fill-rule="evenodd" clip-rule="evenodd" d="M20 21C21.1046 21 22 20.1046 22 19V17C22 16.4477 21.5523 16 21 16H19C19.5523 16 20 16.4477 20 17V19C20 20.1046 19.1046 21 18 21H20Z" fill="white"/>
<path d="M22 11C22 10.4477 21.5523 10 21 10H19C19.5523 10 20 10.4477 20 11V13C20 13.5523 19.5523 14 19 14H21C21.5523 14 22 13.5523 22 13V11Z" fill="white"/>
<path d="M2 11C2 10.4477 2.44771 10 3 10H17C17.5523 10 18 10.4477 18 11V13C18 13.5523 17.5523 14 17 14H3C2.44771 14 2 13.5523 2 13V11Z" fill="white"/>
<path d="M2 5C2 3.89543 2.89543 3 4 3H16C17.1046 3 18 3.89543 18 5V7C18 7.55228 17.5523 8 17 8H3C2.44771 8 2 7.55228 2 7V5Z" fill="white"/>
<path d="M2 19C2 20.1046 2.89543 21 4 21H16C17.1046 21 18 20.1046 18 19V17C18 16.4477 17.5523 16 17 16H3C2.44771 16 2 16.4477 2 17V19Z" fill="white"/>
</svg>
