<svg
  width="24"
  height="24"
  fill="none"
  xmlns="http://www.w3.org/2000/svg"
>
  <path
    d="M19 4H5C3.89 4 3 4.9 3 6V18C3 19.1 3.89 20 5 20H19C20.1 20 21 19.1 21 18V6C21 4.9 20.11 4 19 4ZM18 18H6C5.45 18 5 17.55 5 17V8H19V17C19 17.55 18.55 18 18 18Z"
    fill="white"
  />
  <path
    d="M10.95 15.99C10.77 16.38 10.22 16.38 10.04 15.99L9.41003 14.59L8.01003 13.96C7.62003 13.78 7.62003 13.23 8.01003 13.05L9.41003 12.42L10.04 11.02C10.22 10.63 10.77 10.63 10.95 11.02L11.58 12.42L12.98 13.05C13.37 13.23 13.37 13.78 12.98 13.96L11.58 14.59L10.95 15.99Z"
    fill="white"
  />
  <path
    d="M15.26 12.43C15.16 12.65 14.84 12.65 14.74 12.43L14.38 11.63L13.58 11.27C13.36 11.17 13.36 10.85 13.58 10.75L14.38 10.39L14.74 9.59C14.84 9.37 15.16 9.37 15.26 9.59L15.62 10.39L16.42 10.75C16.64 10.85 16.64 11.17 16.42 11.27L15.62 11.63L15.26 12.43Z"
    fill="white"
  />
</svg>
