<svg width="32" height="31" viewBox="0 0 32 31" fill="none" xmlns="http://www.w3.org/2000/svg">
<path d="M26.9894 6.00996C24.9089 5.05745 22.7125 4.38171 20.4564 4C20.1477 4.5519 19.8683 5.11973 19.6196 5.70112C17.2164 5.33898 14.7725 5.33898 12.3692 5.70112C12.1203 5.11979 11.841 4.55197 11.5324 4C9.27482 4.38494 7.077 5.06228 4.9944 6.01494C0.859909 12.132 -0.260888 18.0971 0.299511 23.9776C2.72077 25.7665 5.43086 27.127 8.31196 28C8.9607 27.1275 9.53475 26.2018 10.028 25.2329C9.09113 24.883 8.18685 24.4512 7.32566 23.9427C7.55231 23.7783 7.77398 23.609 7.98818 23.4446C10.494 24.623 13.229 25.234 15.9981 25.234C18.7673 25.234 21.5023 24.623 24.0081 23.4446C24.2248 23.6214 24.4465 23.7908 24.6706 23.9427C23.8078 24.4521 22.9018 24.8846 21.9633 25.2354C22.4559 26.2039 23.03 27.1287 23.6793 28C26.5629 27.1305 29.2751 25.7707 31.6968 23.9801V23.9801C32.3543 17.1606 30.5735 11.2503 26.9894 6.00996ZM10.7379 20.3611C9.17622 20.3611 7.88606 18.944 7.88606 17.2005C7.88606 15.457 9.13139 14.0274 10.7329 14.0274C12.3344 14.0274 13.6146 15.457 13.5872 17.2005C13.5598 18.944 12.3294 20.3611 10.7379 20.3611ZM21.2584 20.3611C19.6943 20.3611 18.4091 18.944 18.4091 17.2005C18.4091 15.457 19.6544 14.0274 21.2584 14.0274C22.8624 14.0274 24.1326 15.457 24.1052 17.2005C24.0778 18.944 22.8499 20.3611 21.2584 20.3611Z" fill="white"/>
</svg>
