<svg xmlns="http://www.w3.org/2000/svg">
  <symbol id="console">
    <path
      d="M20 4H4C2.89 4 2 4.9 2 6V18C2 19.1 2.89 20 4 20H20C21.1 20 22 19.1 22 18V6C22 4.9 21.11 4 20 4ZM20 18H4V8H20V18ZM12 16C12 15.45 12.45 15 13 15H17C17.55 15 18 15.45 18 16C18 16.55 17.55 17 17 17H13C12.45 17 12 16.55 12 16ZM6.79 9.71C7.18 9.32 7.81 9.32 8.2 9.71L10.79 12.3C11.18 12.69 11.18 13.32 10.79 13.71L8.2 16.3C7.81 16.69 7.18 16.69 6.79 16.3C6.69728 16.2075 6.62373 16.0976 6.57354 15.9766C6.52335 15.8557 6.49751 15.726 6.49751 15.595C6.49751 15.464 6.52335 15.3343 6.57354 15.2134C6.62373 15.0924 6.69728 14.9825 6.79 14.89L8.67 13L6.79 11.12C6.69728 11.0275 6.62373 10.9176 6.57354 10.7966C6.52335 10.6757 6.49751 10.546 6.49751 10.415C6.49751 10.284 6.52335 10.1543 6.57354 10.0334C6.62373 9.91239 6.69728 9.80251 6.79 9.71Z"
    />
  </symbol>
  <symbol id="dashboard">
    <path
      d="M4 13H10C10.55 13 11 12.55 11 12V4C11 3.45 10.55 3 10 3H4C3.45 3 3 3.45 3 4V12C3 12.55 3.45 13 4 13ZM4 21H10C10.55 21 11 20.55 11 20V16C11 15.45 10.55 15 10 15H4C3.45 15 3 15.45 3 16V20C3 20.55 3.45 21 4 21ZM14 21H20C20.55 21 21 20.55 21 20V12C21 11.45 20.55 11 20 11H14C13.45 11 13 11.45 13 12V20C13 20.55 13.45 21 14 21ZM13 4V8C13 8.55 13.45 9 14 9H20C20.55 9 21 8.55 21 8V4C21 3.45 20.55 3 20 3H14C13.45 3 13 3.45 13 4Z"
    />
  </symbol>
  <symbol id="develop">
    <path
      d="M22 8C22 7.45 21.55 7 21 7H20V5C20 3.9 19.1 3 18 3H4C2.9 3 2 3.9 2 5V19C2 20.1 2.9 21 4 21H18C19.1 21 20 20.1 20 19V17H21C21.55 17 22 16.55 22 16C22 15.45 21.55 15 21 15H20V13H21C21.55 13 22 12.55 22 12C22 11.45 21.55 11 21 11H20V9H21C21.55 9 22 8.55 22 8ZM17 19H5C4.45 19 4 18.55 4 18V6C4 5.45 4.45 5 5 5H17C17.55 5 18 5.45 18 6V18C18 18.55 17.55 19 17 19ZM6.5 13H10.5C10.78 13 11 13.22 11 13.5V16.5C11 16.78 10.78 17 10.5 17H6.5C6.22 17 6 16.78 6 16.5V13.5C6 13.22 6.22 13 6.5 13ZM12.5 7H15.5C15.78 7 16 7.22 16 7.5V9.5C16 9.78 15.78 10 15.5 10H12.5C12.22 10 12 9.78 12 9.5V7.5C12 7.22 12.22 7 12.5 7ZM6.5 7H10.5C10.78 7 11 7.22 11 7.5V11.5C11 11.78 10.78 12 10.5 12H6.5C6.22 12 6 11.78 6 11.5V7.5C6 7.22 6.22 7 6.5 7ZM12.5 11H15.5C15.78 11 16 11.22 16 11.5V16.5C16 16.78 15.78 17 15.5 17H12.5C12.22 17 12 16.78 12 16.5V11.5C12 11.22 12.22 11 12.5 11Z"
    />
  </symbol>
  <symbol id="dropdown-arrow">
    <path
      d="M8.71005 12.29L11.3001 9.7C11.6901 9.31 12.3201 9.31 12.7101 9.7L15.3001 12.29C15.9301 12.92 15.4801 14 14.5901 14H9.41005C8.52005 14 8.08005 12.92 8.71005 12.29Z"
    />
  </symbol>
  <symbol id="emoji">
    <path
      d="M11.99 2C6.47 2 2 6.48 2 12C2 17.52 6.47 22 11.99 22C17.52 22 22 17.52 22 12C22 6.48 17.52 2 11.99 2ZM8.5 8C9.33 8 10 8.67 10 9.5C10 10.33 9.33 11 8.5 11C7.67 11 7 10.33 7 9.5C7 8.67 7.67 8 8.5 8ZM16.71 14.72C15.8 16.67 14.04 18 12 18C9.96 18 8.2 16.67 7.29 14.72C7.13 14.39 7.37 14 7.74 14H16.26C16.63 14 16.87 14.39 16.71 14.72V14.72ZM15.5 11C14.67 11 14 10.33 14 9.5C14 8.67 14.67 8 15.5 8C16.33 8 17 8.67 17 9.5C17 10.33 16.33 11 15.5 11Z"
    />
  </symbol>
  <symbol id="empty">
    <path d="M24 0H0V24L0 0L24 0Z" />
  </symbol>
  <symbol id="forum">
    <path
      d="M20 6H19V14C19 14.55 18.55 15 18 15H6V16C6 17.1 6.9 18 8 18H18L22 22V8C22 6.9 21.1 6 20 6ZM17 11V4C17 2.9 16.1 2 15 2H4C2.9 2 2 2.9 2 4V17L6 13H15C16.1 13 17 12.1 17 11Z"
    />
  </symbol>
  <symbol id="home">
    <path d="M10.0001 19V14H14.0001V19C14.0001 19.55 14.4501 20 15.0001 20H18.0001C18.5501 20 19.0001 19.55 19.0001 19V12H20.7001C21.1601 12 21.3801 11.43 21.0301 11.13L12.6701 3.6C12.2901 3.26 11.7101 3.26 11.3301 3.6L2.9701 11.13C2.6301 11.43 2.8401 12 3.3001 12H5.0001V19C5.0001 19.55 5.4501 20 6.0001 20H9.0001C9.5501 20 10.0001 19.55 10.0001 19Z" />
  </symbol>
  <symbol id="rules">
    <path fill-rule="evenodd"
      clip-rule="evenodd"
      d="M5 3C3.34315 3 2 4.34315 2 6V9H6V18C6 19.6569 7.34315 21 9 21H19C20.6569 21 22 19.6569 22 18V15H18V6C18 4.34315 16.6569 3 15 3H5ZM4 7H12V6C12 5.44772 12.225 5 12.5 5H5C4.44772 5 4 5.44772 4 6V7ZM20 17H18V18C18 18.5523 18.4477 19 19 19C19.5523 19 20 18.5523 20 18V17ZM8 13V11H16V13H8ZM8 15V17H14V15H8Z"
    />
  </symbol>
  <symbol id="server">
      <path d="M4 11C4 10.4477 4.44771 10 5 10H19C19.5523 10 20 10.4477 20 11V13C20 13.5523 19.5523 14 19 14H5C4.44771 14 4 13.5523 4 13V11Z"/>
      <path d="M4 5C4 3.89543 4.89543 3 6 3H18C19.1046 3 20 3.89543 20 5V7C20 7.55228 19.5523 8 19 8H5C4.44771 8 4 7.55228 4 7V5Z"/>
      <path d="M4 19C4 20.1046 4.89543 21 6 21H18C19.1046 21 20 20.1046 20 19V17C20 16.4477 19.5523 16 19 16H5C4.44771 16 4 16.4477 4 17V19Z"/>
  </symbol>
  <symbol id="servers">
    <path fill-rule="evenodd" clip-rule="evenodd"
      d="M20 3C21.1046 3 22 3.89543 22 5V7C22 7.55228 21.5523 8 21 8H19C19.5523 8 20 7.55228 20 7V5C20 3.89543 19.1046 3 18 3H20Z"/>
    <path fill-rule="evenodd" clip-rule="evenodd"
      d="M20 21C21.1046 21 22 20.1046 22 19V17C22 16.4477 21.5523 16 21 16H19C19.5523 16 20 16.4477 20 17V19C20 20.1046 19.1046 21 18 21H20Z"/>
    <path
      d="M22 11C22 10.4477 21.5523 10 21 10H19C19.5523 10 20 10.4477 20 11V13C20 13.5523 19.5523 14 19 14H21C21.5523 14 22 13.5523 22 13V11Z"/>
    <path
      d="M2 11C2 10.4477 2.44771 10 3 10H17C17.5523 10 18 10.4477 18 11V13C18 13.5523 17.5523 14 17 14H3C2.44771 14 2 13.5523 2 13V11Z"/>
    <path
      d="M2 5C2 3.89543 2.89543 3 4 3H16C17.1046 3 18 3.89543 18 5V7C18 7.55228 17.5523 8 17 8H3C2.44771 8 2 7.55228 2 7V5Z"/>
    <path
      d="M2 19C2 20.1046 2.89543 21 4 21H16C17.1046 21 18 20.1046 18 19V17C18 16.4477 17.5523 16 17 16H3C2.44771 16 2 16.4477 2 17V19Z"/>
  </symbol>
  <symbol id="default">
    <path d="M18 4H6C4.89 4 4 4.9 4 6V18C4 19.1 4.89 20 6 20H18C19.1 20 20 19.1 20 18V6C20 4.9 19.11 4 18 4ZM18 18H6V6H18V18Z" />
    <path d="M6.9999 17L8.41426 17L11.9999 13.4143L15.5856 17L17 17V15.5859L13.4142 12.0001L17 8.41426V7L15.5858 7L11.9999 10.5859L8.41407 7.00001L6.9999 7.00001V8.41427L10.5857 12.0001L6.9999 15.5859V17Z" />
  </symbol>
</svg>