<svg xmlns="http://www.w3.org/2000/svg">
  <symbol id="cloud">
    <path
      d="M18.3689 10.2334L18.517 10.9847L19.2809 11.0376C21.3669 11.182 23 12.8956 23 15C23 17.2077 21.2077 19 19 19H6C3.24228 19 1 16.7577 1 14C1 11.4256 2.94996 9.30079 5.45572 9.0344L5.98913 8.97769L6.23691 8.50193C7.32177 6.41901 9.4979 5 12 5C15.1528 5 17.7794 7.24274 18.3689 10.2334Z"
      stroke-width="2"
      fill="none"
    />
  </symbol>
  <symbol id="cloud-initial" />
  <symbol id="cloud-invalid">
    <path
      d="M14.8284 15.8284C14.4395 16.2173 13.8031 16.2173 13.4142 15.8284L12 14.4142L10.5858 15.8284C10.1969 16.2173 9.56047 16.2173 9.17156 15.8284C8.78266 15.4395 8.78266 14.8031 9.17156 14.4142L10.5858 13L9.17156 11.5858C8.78266 11.1969 8.78266 10.5605 9.17156 10.1716C9.56047 9.78265 10.1969 9.78265 10.5858 10.1716L12 11.5858L13.4142 10.1716C13.8031 9.78265 14.4395 9.78265 14.8284 10.1716C15.2173 10.5605 15.2173 11.1969 14.8284 11.5858L13.4142 13L14.8284 14.4142C15.2173 14.8031 15.2173 15.4395 14.8284 15.8284Z"
    />
  </symbol>
  <symbol id="cloud-valid">
    <path
      d="M9.29997 16.29C9.68997 16.68 10.32 16.68 10.71 16.29L15.89 11.11C16.28 10.72 16.28 10.09 15.89 9.69997C15.5 9.30997 14.87 9.30997 14.48 9.69997L9.99997 14.18L8.60997 12.79C8.21997 12.4 7.58997 12.4 7.19997 12.79C6.80997 13.18 6.80997 13.81 7.19997 14.2L9.29997 16.29Z"
    />
  </symbol>
  <symbol id="cloud-error">
    <path d="M11 12V9C11 8.45 11.45 8 12 8C12.55 8 13 8.45 13 9V12C13 12.55 12.55 13 12 13C11.45 13 11 12.55 11 12Z" />
    <path d="M13 14H11V16H13V14Z" />
  </symbol>
  <symbol id="cloud-sending" width="24" height="24" viewBox="0 0 24 24">
    <path
      d="M10.25 15.5311C9.58275 15.1459 9.06127 14.5512 8.76642 13.8394C8.47158 13.1276 8.41985 12.3384 8.61926 11.5941C8.81867 10.8499 9.25808 10.1923 9.86934 9.72326C10.4806 9.25423 11.2295 9 12 9C12.7705 9 13.5194 9.25423 14.1306 9.72326C14.7419 10.1923 15.1813 10.8499 15.3807 11.5941C15.5801 12.3384 15.5284 13.1276 15.2336 13.8394C14.9387 14.5512 14.4172 15.1459 13.75 15.5311"
      stroke-width="2"
      stroke-linecap="round"
      fill="none"
    />
    <path
      d="M14.9497 16.182C15.2647 16.497 15.0416 17.0356 14.5962 17.0356H12.7677C12.4916 17.0356 12.2677 16.8117 12.2677 16.5356V14.7071C12.2677 14.2617 12.8063 14.0386 13.1213 14.3536L14.9497 16.182Z"
    />
  </symbol>
  <symbol id="close">
    <path d="M4.70703 3.29297L3.29297 4.70703L10.5859 12L3.29297 19.293L4.70703 20.707L12 13.4141L19.293 20.707L20.707 19.293L13.4141 12L20.707 4.70703L19.293 3.29297L12 10.5859L4.70703 3.29297Z" />
  </symbol>
  <symbol id="close-small">
    <path d="M6.70703 5.29297L5.29297 6.70703L10.5859 12L5.29297 17.293L6.70703 18.707L12 13.4141L17.293 18.707L18.707 17.293L13.4141 12L18.707 6.70703L17.293 5.29297L12 10.5859L6.70703 5.29297Z" />
  </symbol>
  <symbol id="copy-small">
    <path d="M8.5 1H2C1.45 1 1 1.45 1 2V8.5C1 8.775 1.225 9 1.5 9C1.775 9 2 8.775 2 8.5V2.5C2 2.225 2.225 2 2.5 2H8.5C8.775 2 9 1.775 9 1.5C9 1.225 8.775 1 8.5 1ZM10 3H4C3.45 3 3 3.45 3 4V10C3 10.55 3.45 11 4 11H10C10.55 11 11 10.55 11 10V4C11 3.45 10.55 3 10 3ZM9.5 10H4.5C4.225 10 4 9.775 4 9.5V4.5C4 4.225 4.225 4 4.5 4H9.5C9.775 4 10 4.225 10 4.5V9.5C10 9.775 9.775 10 9.5 10Z" />
  </symbol>
  <symbol id="console">
    <path
      d="M21 5C21 3.89543 20.1046 3 19 3H5C3.89543 3 3 3.89543 3 5V19C3 20.1046 3.89543 21 5 21H6V19H5V8H19V13H21V5Z" />
    <path d="M10 18.5C10 18.7761 10.2239 19 10.5 19H13C13 20.1046 12.1046 21 11 21H10C8.89543 21 8 20.1046 8 19V17C8 15.8954 8.89543 15 10 15H11C12.1046 15 13 15.8954 13 17H10.5C10.2239 17 10 17.2239 10 17.5V18.5Z" />
    <path d="M14 17V15H16V17H14Z"/>
    <path d="M14 19V21H16V19H14Z"/>
    <path d="M17 15L19 21H21L19 15H17Z"/>
  </symbol>
  <symbol id="dashboard">
    <path
      d="M4 13H10C10.55 13 11 12.55 11 12V4C11 3.45 10.55 3 10 3H4C3.45 3 3 3.45 3 4V12C3 12.55 3.45 13 4 13ZM4 21H10C10.55 21 11 20.55 11 20V16C11 15.45 10.55 15 10 15H4C3.45 15 3 15.45 3 16V20C3 20.55 3.45 21 4 21ZM14 21H20C20.55 21 21 20.55 21 20V12C21 11.45 20.55 11 20 11H14C13.45 11 13 11.45 13 12V20C13 20.55 13.45 21 14 21ZM13 4V8C13 8.55 13.45 9 14 9H20C20.55 9 21 8.55 21 8V4C21 3.45 20.55 3 20 3H14C13.45 3 13 3.45 13 4Z"
    />
  </symbol>
  <symbol id="develop">
    <path
      d="M22 8C22 7.45 21.55 7 21 7H20V5C20 3.9 19.1 3 18 3H4C2.9 3 2 3.9 2 5V19C2 20.1 2.9 21 4 21H18C19.1 21 20 20.1 20 19V17H21C21.55 17 22 16.55 22 16C22 15.45 21.55 15 21 15H20V13H21C21.55 13 22 12.55 22 12C22 11.45 21.55 11 21 11H20V9H21C21.55 9 22 8.55 22 8ZM17 19H5C4.45 19 4 18.55 4 18V6C4 5.45 4.45 5 5 5H17C17.55 5 18 5.45 18 6V18C18 18.55 17.55 19 17 19ZM6.5 13H10.5C10.78 13 11 13.22 11 13.5V16.5C11 16.78 10.78 17 10.5 17H6.5C6.22 17 6 16.78 6 16.5V13.5C6 13.22 6.22 13 6.5 13ZM12.5 7H15.5C15.78 7 16 7.22 16 7.5V9.5C16 9.78 15.78 10 15.5 10H12.5C12.22 10 12 9.78 12 9.5V7.5C12 7.22 12.22 7 12.5 7ZM6.5 7H10.5C10.78 7 11 7.22 11 7.5V11.5C11 11.78 10.78 12 10.5 12H6.5C6.22 12 6 11.78 6 11.5V7.5C6 7.22 6.22 7 6.5 7ZM12.5 11H15.5C15.78 11 16 11.22 16 11.5V16.5C16 16.78 15.78 17 15.5 17H12.5C12.22 17 12 16.78 12 16.5V11.5C12 11.22 12.22 11 12.5 11Z"
    />
  </symbol>
  <symbol id="dropdown-arrow">
    <path
      d="M8.71005 12.29L11.3001 9.7C11.6901 9.31 12.3201 9.31 12.7101 9.7L15.3001 12.29C15.9301 12.92 15.4801 14 14.5901 14H9.41005C8.52005 14 8.08005 12.92 8.71005 12.29Z"
    />
  </symbol>
  <symbol id="emoji">
    <path
      d="M11.99 2C6.47 2 2 6.48 2 12C2 17.52 6.47 22 11.99 22C17.52 22 22 17.52 22 12C22 6.48 17.52 2 11.99 2ZM8.5 8C9.33 8 10 8.67 10 9.5C10 10.33 9.33 11 8.5 11C7.67 11 7 10.33 7 9.5C7 8.67 7.67 8 8.5 8ZM16.71 14.72C15.8 16.67 14.04 18 12 18C9.96 18 8.2 16.67 7.29 14.72C7.13 14.39 7.37 14 7.74 14H16.26C16.63 14 16.87 14.39 16.71 14.72V14.72ZM15.5 11C14.67 11 14 10.33 14 9.5C14 8.67 14.67 8 15.5 8C16.33 8 17 8.67 17 9.5C17 10.33 16.33 11 15.5 11Z"
    />
  </symbol>
  <symbol id="empty">
    <path d="M24 0H0V24L0 0L24 0Z" />
  </symbol>
  <symbol id="forum">
    <path
      d="M20 6H19V14C19 14.55 18.55 15 18 15H6V16C6 17.1 6.9 18 8 18H18L22 22V8C22 6.9 21.1 6 20 6ZM17 11V4C17 2.9 16.1 2 15 2H4C2.9 2 2 2.9 2 4V17L6 13H15C16.1 13 17 12.1 17 11Z"
    />
  </symbol>
  <symbol id="home">
    <path d="M10.0001 19V14H14.0001V19C14.0001 19.55 14.4501 20 15.0001 20H18.0001C18.5501 20 19.0001 19.55 19.0001 19V12H20.7001C21.1601 12 21.3801 11.43 21.0301 11.13L12.6701 3.6C12.2901 3.26 11.7101 3.26 11.3301 3.6L2.9701 11.13C2.6301 11.43 2.8401 12 3.3001 12H5.0001V19C5.0001 19.55 5.4501 20 6.0001 20H9.0001C9.5501 20 10.0001 19.55 10.0001 19Z" />
  </symbol>
  <symbol id="rules">
    <path fill-rule="evenodd"
      clip-rule="evenodd"
      d="M5 3C3.34315 3 2 4.34315 2 6V9H6V18C6 19.6569 7.34315 21 9 21H19C20.6569 21 22 19.6569 22 18V15H18V6C18 4.34315 16.6569 3 15 3H5ZM4 7H12V6C12 5.44772 12.225 5 12.5 5H5C4.44772 5 4 5.44772 4 6V7ZM20 17H18V18C18 18.5523 18.4477 19 19 19C19.5523 19 20 18.5523 20 18V17ZM8 13V11H16V13H8ZM8 15V17H14V15H8Z"
    />
  </symbol>
  <symbol id="server">
      <path d="M4 11C4 10.4477 4.44771 10 5 10H19C19.5523 10 20 10.4477 20 11V13C20 13.5523 19.5523 14 19 14H5C4.44771 14 4 13.5523 4 13V11Z"/>
      <path d="M4 5C4 3.89543 4.89543 3 6 3H18C19.1046 3 20 3.89543 20 5V7C20 7.55228 19.5523 8 19 8H5C4.44771 8 4 7.55228 4 7V5Z"/>
      <path d="M4 19C4 20.1046 4.89543 21 6 21H18C19.1046 21 20 20.1046 20 19V17C20 16.4477 19.5523 16 19 16H5C4.44771 16 4 16.4477 4 17V19Z"/>
  </symbol>
  <symbol id="servers">
    <path
      d="M20 3C21.1046 3 22 3.89543 22 5V7C22 7.55228 21.5523 8 21 8H19C19.5523 8 20 7.55228 20 7V5C20 3.89543 19.1046 3 18 3H20Z"/>
    <path
      d="M20 21C21.1046 21 22 20.1046 22 19V17C22 16.4477 21.5523 16 21 16H19C19.5523 16 20 16.4477 20 17V19C20 20.1046 19.1046 21 18 21H20Z"/>
    <path
      d="M22 11C22 10.4477 21.5523 10 21 10H19C19.5523 10 20 10.4477 20 11V13C20 13.5523 19.5523 14 19 14H21C21.5523 14 22 13.5523 22 13V11Z"/>
    <path
      d="M2 11C2 10.4477 2.44771 10 3 10H17C17.5523 10 18 10.4477 18 11V13C18 13.5523 17.5523 14 17 14H3C2.44771 14 2 13.5523 2 13V11Z"/>
    <path
      d="M2 5C2 3.89543 2.89543 3 4 3H16C17.1046 3 18 3.89543 18 5V7C18 7.55228 17.5523 8 17 8H3C2.44771 8 2 7.55228 2 7V5Z"/>
    <path
      d="M2 19C2 20.1046 2.89543 21 4 21H16C17.1046 21 18 20.1046 18 19V17C18 16.4477 17.5523 16 17 16H3C2.44771 16 2 16.4477 2 17V19Z"/>
  </symbol>
  <symbol id="pinned-page">
    <path fill-rule="evenodd"
      clip-rule="evenodd"
      d="M14.58 2.58L19.41 7.41C19.79 7.79 20 8.3 20 8.83V20C20 21.1 19.1 22 18 22H6C4.9 22 4 21.1 4 20V4C4 2.9 4.9 2 6 2H13.17C13.7 2 14.21 2.21 14.58 2.58ZM14.0749 15.89L11.9999 14.635L9.92491 15.885C9.54491 16.115 9.07991 15.775 9.17991 15.345L9.72991 12.985L7.89491 11.395C7.55991 11.105 7.73991 10.555 8.17991 10.52L10.5949 10.315L11.5399 8.09C11.7099 7.685 12.2899 7.685 12.4599 8.09L13.4049 10.32L15.8199 10.525C16.2599 10.56 16.4399 11.11 16.1049 11.4L14.2699 12.99L14.8199 15.35C14.9199 15.78 14.4549 16.12 14.0749 15.89Z" />
  </symbol>
  <symbol id="default">
    <path d="M18 4H6C4.89 4 4 4.9 4 6V18C4 19.1 4.89 20 6 20H18C19.1 20 20 19.1 20 18V6C20 4.9 19.11 4 18 4Z" />
  </symbol>
</svg>